<mxfile host="app.diagrams.net" agent="Mozilla/5.0 (Windows NT 10.0; Win64; x64) AppleWebKit/537.36 (KHTML, like Gecko) Chrome/140.0.0.0 Safari/537.36" version="28.2.5">
  <diagram name="Page-1" id="WeIp5H9CJg4k2MAYfzCk">
    <mxGraphModel dx="3473" dy="1900" grid="1" gridSize="10" guides="1" tooltips="1" connect="1" arrows="1" fold="1" page="1" pageScale="1" pageWidth="850" pageHeight="1100" math="0" shadow="0">
      <root>
        <mxCell id="0" />
        <mxCell id="1" parent="0" />
        <mxCell id="J9KPsOGBrFH3h_5mreXa-1" value="MEMORIAL" style="rounded=0;whiteSpace=wrap;html=1;" vertex="1" parent="1">
          <mxGeometry x="1206.75" y="190" width="225" height="147.5" as="geometry" />
        </mxCell>
        <mxCell id="J9KPsOGBrFH3h_5mreXa-2" value="" style="rounded=0;whiteSpace=wrap;html=1;" vertex="1" parent="1">
          <mxGeometry x="331.75" y="100" width="1990" height="980" as="geometry" />
        </mxCell>
        <mxCell id="J9KPsOGBrFH3h_5mreXa-3" value="&lt;font style=&quot;font-size: 48px;&quot;&gt;SYSTEM LEVEL DESCRIPTION&lt;/font&gt;" style="text;html=1;align=center;verticalAlign=middle;resizable=0;points=[];autosize=1;strokeColor=none;fillColor=none;" vertex="1" parent="1">
          <mxGeometry x="939.25" width="720" height="70" as="geometry" />
        </mxCell>
        <mxCell id="J9KPsOGBrFH3h_5mreXa-4" value="&lt;font style=&quot;font-size: 36px;&quot;&gt;Buffer&lt;/font&gt;" style="rounded=1;whiteSpace=wrap;html=1;" vertex="1" parent="1">
          <mxGeometry x="89.38" y="230" width="160" height="150" as="geometry" />
        </mxCell>
        <mxCell id="J9KPsOGBrFH3h_5mreXa-5" value="" style="endArrow=classic;html=1;rounded=0;" edge="1" parent="1">
          <mxGeometry width="50" height="50" relative="1" as="geometry">
            <mxPoint x="10" y="304.28999999999996" as="sourcePoint" />
            <mxPoint x="91.88" y="304.28999999999996" as="targetPoint" />
          </mxGeometry>
        </mxCell>
        <mxCell id="J9KPsOGBrFH3h_5mreXa-6" value="" style="endArrow=classic;html=1;rounded=0;exitX=1;exitY=0.5;exitDx=0;exitDy=0;entryX=0;entryY=0.5;entryDx=0;entryDy=0;" edge="1" parent="1" source="J9KPsOGBrFH3h_5mreXa-4" target="J9KPsOGBrFH3h_5mreXa-8">
          <mxGeometry width="50" height="50" relative="1" as="geometry">
            <mxPoint x="328.12" y="304.28999999999996" as="sourcePoint" />
            <mxPoint x="330" y="304" as="targetPoint" />
          </mxGeometry>
        </mxCell>
        <mxCell id="J9KPsOGBrFH3h_5mreXa-7" value="&lt;font style=&quot;font-size: 36px;&quot;&gt;CALIBRATION CIRCUIT&lt;/font&gt;" style="text;html=1;align=center;verticalAlign=middle;resizable=0;points=[];autosize=1;strokeColor=none;fillColor=none;" vertex="1" parent="1">
          <mxGeometry x="1100.5" y="1020" width="420" height="60" as="geometry" />
        </mxCell>
        <mxCell id="J9KPsOGBrFH3h_5mreXa-8" value="&lt;font style=&quot;font-size: 24px;&quot;&gt;QUANTIZER&lt;/font&gt;" style="rounded=0;whiteSpace=wrap;html=1;" vertex="1" parent="1">
          <mxGeometry x="385" y="230" width="213.13" height="145" as="geometry" />
        </mxCell>
        <mxCell id="J9KPsOGBrFH3h_5mreXa-9" style="edgeStyle=orthogonalEdgeStyle;rounded=0;orthogonalLoop=1;jettySize=auto;html=1;exitX=1;exitY=0.5;exitDx=0;exitDy=0;entryX=0;entryY=0.5;entryDx=0;entryDy=0;dashed=1;" edge="1" parent="1" target="J9KPsOGBrFH3h_5mreXa-12">
          <mxGeometry relative="1" as="geometry">
            <mxPoint x="886.25" y="260" as="sourcePoint" />
            <mxPoint x="1068.5" y="260" as="targetPoint" />
          </mxGeometry>
        </mxCell>
        <mxCell id="J9KPsOGBrFH3h_5mreXa-10" value="&lt;font style=&quot;font-size: 24px;&quot;&gt;ODD POWER&lt;/font&gt;" style="rounded=0;whiteSpace=wrap;html=1;" vertex="1" parent="1">
          <mxGeometry x="660" y="232.5" width="225" height="147.5" as="geometry" />
        </mxCell>
        <mxCell id="J9KPsOGBrFH3h_5mreXa-11" value="" style="endArrow=classic;html=1;rounded=0;exitX=1;exitY=0.5;exitDx=0;exitDy=0;entryX=0;entryY=0.5;entryDx=0;entryDy=0;dashed=1;" edge="1" parent="1" source="J9KPsOGBrFH3h_5mreXa-8" target="J9KPsOGBrFH3h_5mreXa-10">
          <mxGeometry width="50" height="50" relative="1" as="geometry">
            <mxPoint x="1600" y="690" as="sourcePoint" />
            <mxPoint x="1650" y="640" as="targetPoint" />
          </mxGeometry>
        </mxCell>
        <mxCell id="J9KPsOGBrFH3h_5mreXa-12" value="&lt;font style=&quot;font-size: 24px;&quot;&gt;MEMORIAL&lt;/font&gt;" style="rounded=0;whiteSpace=wrap;html=1;" vertex="1" parent="1">
          <mxGeometry x="1070.25" y="102.5" width="220" height="107.5" as="geometry" />
        </mxCell>
        <mxCell id="J9KPsOGBrFH3h_5mreXa-13" value="&lt;font style=&quot;font-size: 24px;&quot;&gt;&lt;font style=&quot;&quot;&gt;...&amp;nbsp;&lt;/font&gt;&lt;span style=&quot;background-color: transparent; color: light-dark(rgb(0, 0, 0), rgb(255, 255, 255));&quot;&gt;(x5)&lt;/span&gt;&lt;/font&gt;" style="text;html=1;align=center;verticalAlign=middle;resizable=0;points=[];autosize=1;strokeColor=none;fillColor=none;" vertex="1" parent="1">
          <mxGeometry x="1135.25" y="337.5" width="90" height="40" as="geometry" />
        </mxCell>
        <mxCell id="J9KPsOGBrFH3h_5mreXa-14" value="x&lt;sup&gt;1&lt;/sup&gt;" style="text;html=1;align=center;verticalAlign=middle;resizable=0;points=[];autosize=1;strokeColor=none;fillColor=none;" vertex="1" parent="1">
          <mxGeometry x="850.6199999999999" y="240" width="40" height="30" as="geometry" />
        </mxCell>
        <mxCell id="J9KPsOGBrFH3h_5mreXa-15" value="&lt;font style=&quot;font-size: 24px;&quot;&gt;...&amp;nbsp;&lt;/font&gt;&lt;div&gt;&lt;br&gt;&lt;/div&gt;" style="text;html=1;align=center;verticalAlign=middle;resizable=0;points=[];autosize=1;strokeColor=none;fillColor=none;rotation=90;" vertex="1" parent="1">
          <mxGeometry x="847.5" y="290" width="50" height="60" as="geometry" />
        </mxCell>
        <mxCell id="J9KPsOGBrFH3h_5mreXa-16" style="edgeStyle=orthogonalEdgeStyle;rounded=0;orthogonalLoop=1;jettySize=auto;html=1;entryX=0;entryY=0.5;entryDx=0;entryDy=0;dashed=1;" edge="1" parent="1" target="J9KPsOGBrFH3h_5mreXa-23">
          <mxGeometry relative="1" as="geometry">
            <mxPoint x="886.25" y="290" as="sourcePoint" />
            <mxPoint x="1068.5" y="413.75" as="targetPoint" />
            <Array as="points">
              <mxPoint x="886.75" y="284" />
            </Array>
          </mxGeometry>
        </mxCell>
        <mxCell id="J9KPsOGBrFH3h_5mreXa-17" value="x&lt;sup&gt;3&lt;/sup&gt;" style="text;html=1;align=center;verticalAlign=middle;resizable=0;points=[];autosize=1;strokeColor=none;fillColor=none;" vertex="1" parent="1">
          <mxGeometry x="852.5" y="270" width="40" height="30" as="geometry" />
        </mxCell>
        <mxCell id="J9KPsOGBrFH3h_5mreXa-18" value="x&lt;sup&gt;9&lt;/sup&gt;" style="text;html=1;align=center;verticalAlign=middle;resizable=0;points=[];autosize=1;strokeColor=none;fillColor=none;" vertex="1" parent="1">
          <mxGeometry x="850.6199999999999" y="330" width="40" height="30" as="geometry" />
        </mxCell>
        <mxCell id="J9KPsOGBrFH3h_5mreXa-19" style="edgeStyle=orthogonalEdgeStyle;rounded=0;orthogonalLoop=1;jettySize=auto;html=1;exitX=1;exitY=0.5;exitDx=0;exitDy=0;dashed=1;" edge="1" parent="1">
          <mxGeometry relative="1" as="geometry">
            <mxPoint x="1291.5" y="124" as="sourcePoint" />
            <mxPoint x="1391.75" y="124" as="targetPoint" />
          </mxGeometry>
        </mxCell>
        <mxCell id="J9KPsOGBrFH3h_5mreXa-20" style="edgeStyle=orthogonalEdgeStyle;rounded=0;orthogonalLoop=1;jettySize=auto;html=1;exitX=1;exitY=0.5;exitDx=0;exitDy=0;dashed=1;" edge="1" parent="1">
          <mxGeometry relative="1" as="geometry">
            <mxPoint x="1291.5" y="138" as="sourcePoint" />
            <mxPoint x="1391.75" y="138" as="targetPoint" />
          </mxGeometry>
        </mxCell>
        <mxCell id="J9KPsOGBrFH3h_5mreXa-21" value="&lt;font style=&quot;font-size: 24px;&quot;&gt;...&amp;nbsp;&lt;/font&gt;&lt;div&gt;&lt;br&gt;&lt;/div&gt;" style="text;html=1;align=center;verticalAlign=middle;resizable=0;points=[];autosize=1;strokeColor=none;fillColor=none;rotation=90;" vertex="1" parent="1">
          <mxGeometry x="1321.5" y="140" width="50" height="60" as="geometry" />
        </mxCell>
        <mxCell id="J9KPsOGBrFH3h_5mreXa-22" style="edgeStyle=orthogonalEdgeStyle;rounded=0;orthogonalLoop=1;jettySize=auto;html=1;exitX=1;exitY=0.5;exitDx=0;exitDy=0;dashed=1;" edge="1" parent="1">
          <mxGeometry relative="1" as="geometry">
            <mxPoint x="1291.5" y="189.51999999999998" as="sourcePoint" />
            <mxPoint x="1391.75" y="190" as="targetPoint" />
          </mxGeometry>
        </mxCell>
        <mxCell id="J9KPsOGBrFH3h_5mreXa-23" value="&lt;font style=&quot;font-size: 24px;&quot;&gt;MEMORIAL&lt;/font&gt;" style="rounded=0;whiteSpace=wrap;html=1;" vertex="1" parent="1">
          <mxGeometry x="1070.25" y="230" width="220" height="107.5" as="geometry" />
        </mxCell>
        <mxCell id="J9KPsOGBrFH3h_5mreXa-24" value="&lt;font style=&quot;font-size: 24px;&quot;&gt;MEMORIAL&lt;/font&gt;" style="rounded=0;whiteSpace=wrap;html=1;" vertex="1" parent="1">
          <mxGeometry x="1071.5" y="380" width="220" height="107.5" as="geometry" />
        </mxCell>
        <mxCell id="J9KPsOGBrFH3h_5mreXa-25" style="edgeStyle=orthogonalEdgeStyle;rounded=0;orthogonalLoop=1;jettySize=auto;html=1;exitX=1;exitY=0.5;exitDx=0;exitDy=0;dashed=1;entryX=0;entryY=0.5;entryDx=0;entryDy=0;" edge="1" parent="1" target="J9KPsOGBrFH3h_5mreXa-24">
          <mxGeometry relative="1" as="geometry">
            <mxPoint x="887.1199999999999" y="350" as="sourcePoint" />
            <mxPoint x="1069.75" y="420" as="targetPoint" />
            <Array as="points">
              <mxPoint x="991.75" y="350" />
              <mxPoint x="991.75" y="434" />
            </Array>
          </mxGeometry>
        </mxCell>
        <mxCell id="J9KPsOGBrFH3h_5mreXa-26" value="&lt;font style=&quot;font-size: 24px;&quot;&gt;x terms&lt;/font&gt;" style="text;html=1;align=center;verticalAlign=middle;resizable=0;points=[];autosize=1;strokeColor=none;fillColor=none;" vertex="1" parent="1">
          <mxGeometry x="1408" y="135" width="100" height="40" as="geometry" />
        </mxCell>
        <mxCell id="J9KPsOGBrFH3h_5mreXa-27" style="edgeStyle=orthogonalEdgeStyle;rounded=0;orthogonalLoop=1;jettySize=auto;html=1;exitX=1;exitY=0.5;exitDx=0;exitDy=0;dashed=1;" edge="1" parent="1">
          <mxGeometry relative="1" as="geometry">
            <mxPoint x="1290.25" y="244" as="sourcePoint" />
            <mxPoint x="1381.75" y="244" as="targetPoint" />
          </mxGeometry>
        </mxCell>
        <mxCell id="J9KPsOGBrFH3h_5mreXa-28" style="edgeStyle=orthogonalEdgeStyle;rounded=0;orthogonalLoop=1;jettySize=auto;html=1;exitX=1;exitY=0.5;exitDx=0;exitDy=0;dashed=1;" edge="1" parent="1">
          <mxGeometry relative="1" as="geometry">
            <mxPoint x="1290.25" y="258" as="sourcePoint" />
            <mxPoint x="1381.75" y="258" as="targetPoint" />
          </mxGeometry>
        </mxCell>
        <mxCell id="J9KPsOGBrFH3h_5mreXa-29" value="&lt;font style=&quot;font-size: 24px;&quot;&gt;...&amp;nbsp;&lt;/font&gt;&lt;div&gt;&lt;br&gt;&lt;/div&gt;" style="text;html=1;align=center;verticalAlign=middle;resizable=0;points=[];autosize=1;strokeColor=none;fillColor=none;rotation=90;" vertex="1" parent="1">
          <mxGeometry x="1311.5" y="253.75" width="50" height="60" as="geometry" />
        </mxCell>
        <mxCell id="J9KPsOGBrFH3h_5mreXa-30" style="edgeStyle=orthogonalEdgeStyle;rounded=0;orthogonalLoop=1;jettySize=auto;html=1;exitX=1;exitY=0.5;exitDx=0;exitDy=0;dashed=1;" edge="1" parent="1">
          <mxGeometry relative="1" as="geometry">
            <mxPoint x="1290.25" y="309.52" as="sourcePoint" />
            <mxPoint x="1381.75" y="310" as="targetPoint" />
          </mxGeometry>
        </mxCell>
        <mxCell id="J9KPsOGBrFH3h_5mreXa-31" value="&lt;font style=&quot;font-size: 24px;&quot;&gt;x&lt;sup&gt;3&lt;/sup&gt; terms&lt;/font&gt;" style="text;html=1;align=center;verticalAlign=middle;resizable=0;points=[];autosize=1;strokeColor=none;fillColor=none;" vertex="1" parent="1">
          <mxGeometry x="1408" y="250" width="110" height="50" as="geometry" />
        </mxCell>
        <mxCell id="J9KPsOGBrFH3h_5mreXa-32" style="edgeStyle=orthogonalEdgeStyle;rounded=0;orthogonalLoop=1;jettySize=auto;html=1;exitX=1;exitY=0.5;exitDx=0;exitDy=0;dashed=1;" edge="1" parent="1">
          <mxGeometry relative="1" as="geometry">
            <mxPoint x="1290.25" y="395.75" as="sourcePoint" />
            <mxPoint x="1381.75" y="396" as="targetPoint" />
          </mxGeometry>
        </mxCell>
        <mxCell id="J9KPsOGBrFH3h_5mreXa-33" style="edgeStyle=orthogonalEdgeStyle;rounded=0;orthogonalLoop=1;jettySize=auto;html=1;exitX=1;exitY=0.5;exitDx=0;exitDy=0;dashed=1;" edge="1" parent="1">
          <mxGeometry relative="1" as="geometry">
            <mxPoint x="1290.25" y="409.75" as="sourcePoint" />
            <mxPoint x="1381.75" y="410" as="targetPoint" />
          </mxGeometry>
        </mxCell>
        <mxCell id="J9KPsOGBrFH3h_5mreXa-34" value="&lt;font style=&quot;font-size: 24px;&quot;&gt;...&amp;nbsp;&lt;/font&gt;&lt;div&gt;&lt;br&gt;&lt;/div&gt;" style="text;html=1;align=center;verticalAlign=middle;resizable=0;points=[];autosize=1;strokeColor=none;fillColor=none;rotation=90;" vertex="1" parent="1">
          <mxGeometry x="1296.75" y="403.75" width="50" height="60" as="geometry" />
        </mxCell>
        <mxCell id="J9KPsOGBrFH3h_5mreXa-35" style="edgeStyle=orthogonalEdgeStyle;rounded=0;orthogonalLoop=1;jettySize=auto;html=1;exitX=1;exitY=0.5;exitDx=0;exitDy=0;dashed=1;" edge="1" parent="1">
          <mxGeometry relative="1" as="geometry">
            <mxPoint x="1290.25" y="461.27" as="sourcePoint" />
            <mxPoint x="1381.75" y="461" as="targetPoint" />
          </mxGeometry>
        </mxCell>
        <mxCell id="J9KPsOGBrFH3h_5mreXa-36" value="&lt;font style=&quot;font-size: 24px;&quot;&gt;x&lt;sup&gt;9&lt;/sup&gt;&amp;nbsp;terms&lt;/font&gt;" style="text;html=1;align=center;verticalAlign=middle;resizable=0;points=[];autosize=1;strokeColor=none;fillColor=none;" vertex="1" parent="1">
          <mxGeometry x="1408" y="401.75" width="110" height="50" as="geometry" />
        </mxCell>
        <mxCell id="J9KPsOGBrFH3h_5mreXa-37" value="" style="shape=curlyBracket;whiteSpace=wrap;html=1;rounded=1;flipH=1;labelPosition=right;verticalLabelPosition=middle;align=left;verticalAlign=middle;size=0.5;" vertex="1" parent="1">
          <mxGeometry x="1391.5" y="110" width="20" height="90" as="geometry" />
        </mxCell>
        <mxCell id="J9KPsOGBrFH3h_5mreXa-38" value="" style="shape=curlyBracket;whiteSpace=wrap;html=1;rounded=1;flipH=1;labelPosition=right;verticalLabelPosition=middle;align=left;verticalAlign=middle;size=0.5;" vertex="1" parent="1">
          <mxGeometry x="1391.5" y="230" width="20" height="90" as="geometry" />
        </mxCell>
        <mxCell id="J9KPsOGBrFH3h_5mreXa-39" value="" style="shape=curlyBracket;whiteSpace=wrap;html=1;rounded=1;flipH=1;labelPosition=right;verticalLabelPosition=middle;align=left;verticalAlign=middle;size=0.5;" vertex="1" parent="1">
          <mxGeometry x="1391.5" y="381.75" width="20" height="90" as="geometry" />
        </mxCell>
        <mxCell id="J9KPsOGBrFH3h_5mreXa-40" value="" style="endArrow=oval;html=1;rounded=0;endFill=0;shape=flexArrow;entryX=-0.004;entryY=0.403;entryDx=0;entryDy=0;entryPerimeter=0;" edge="1" parent="1" source="J9KPsOGBrFH3h_5mreXa-42" target="J9KPsOGBrFH3h_5mreXa-41">
          <mxGeometry width="50" height="50" relative="1" as="geometry">
            <mxPoint x="91.75" y="752" as="sourcePoint" />
            <mxPoint x="381.75" y="820" as="targetPoint" />
          </mxGeometry>
        </mxCell>
        <mxCell id="J9KPsOGBrFH3h_5mreXa-41" value="&lt;font style=&quot;font-size: 36px;&quot;&gt;LUT&lt;/font&gt;" style="rounded=0;whiteSpace=wrap;html=1;" vertex="1" parent="1">
          <mxGeometry x="387.13" y="530" width="394.62" height="550" as="geometry" />
        </mxCell>
        <mxCell id="J9KPsOGBrFH3h_5mreXa-42" value="&lt;font style=&quot;font-size: 24px;&quot;&gt;FREQ SELECT BITS&lt;/font&gt;" style="text;html=1;align=center;verticalAlign=middle;resizable=0;points=[];autosize=1;strokeColor=none;fillColor=none;" vertex="1" parent="1">
          <mxGeometry x="16.75" y="735" width="250" height="40" as="geometry" />
        </mxCell>
        <mxCell id="J9KPsOGBrFH3h_5mreXa-43" style="edgeStyle=orthogonalEdgeStyle;rounded=0;orthogonalLoop=1;jettySize=auto;html=1;exitX=1;exitY=0.5;exitDx=0;exitDy=0;entryX=0;entryY=0.5;entryDx=0;entryDy=0;dashed=1;" edge="1" parent="1">
          <mxGeometry relative="1" as="geometry">
            <mxPoint x="782.75" y="604" as="sourcePoint" />
            <mxPoint x="965" y="604" as="targetPoint" />
          </mxGeometry>
        </mxCell>
        <mxCell id="J9KPsOGBrFH3h_5mreXa-44" style="edgeStyle=orthogonalEdgeStyle;rounded=0;orthogonalLoop=1;jettySize=auto;html=1;exitX=1;exitY=0.5;exitDx=0;exitDy=0;entryX=0;entryY=0.5;entryDx=0;entryDy=0;dashed=1;" edge="1" parent="1">
          <mxGeometry relative="1" as="geometry">
            <mxPoint x="782.75" y="618" as="sourcePoint" />
            <mxPoint x="965" y="618" as="targetPoint" />
          </mxGeometry>
        </mxCell>
        <mxCell id="J9KPsOGBrFH3h_5mreXa-45" style="edgeStyle=orthogonalEdgeStyle;rounded=0;orthogonalLoop=1;jettySize=auto;html=1;exitX=1;exitY=0.5;exitDx=0;exitDy=0;entryX=0;entryY=0.5;entryDx=0;entryDy=0;dashed=1;" edge="1" parent="1">
          <mxGeometry relative="1" as="geometry">
            <mxPoint x="782.75" y="630" as="sourcePoint" />
            <mxPoint x="965" y="630" as="targetPoint" />
          </mxGeometry>
        </mxCell>
        <mxCell id="J9KPsOGBrFH3h_5mreXa-46" value="&lt;font style=&quot;font-size: 24px;&quot;&gt;...&amp;nbsp;&lt;/font&gt;&lt;div&gt;&lt;br&gt;&lt;/div&gt;" style="text;html=1;align=center;verticalAlign=middle;resizable=0;points=[];autosize=1;strokeColor=none;fillColor=none;rotation=90;" vertex="1" parent="1">
          <mxGeometry x="842.3699999999999" y="710" width="50" height="60" as="geometry" />
        </mxCell>
        <mxCell id="J9KPsOGBrFH3h_5mreXa-47" style="edgeStyle=orthogonalEdgeStyle;rounded=0;orthogonalLoop=1;jettySize=auto;html=1;exitX=1;exitY=0.5;exitDx=0;exitDy=0;entryX=0;entryY=0.5;entryDx=0;entryDy=0;dashed=1;" edge="1" parent="1">
          <mxGeometry relative="1" as="geometry">
            <mxPoint x="774.1300000000001" y="870" as="sourcePoint" />
            <mxPoint x="956.3800000000001" y="870" as="targetPoint" />
          </mxGeometry>
        </mxCell>
        <mxCell id="J9KPsOGBrFH3h_5mreXa-48" value="&lt;font style=&quot;font-size: 24px;&quot;&gt;Coefficients&lt;/font&gt;" style="text;html=1;align=center;verticalAlign=middle;resizable=0;points=[];autosize=1;strokeColor=none;fillColor=none;" vertex="1" parent="1">
          <mxGeometry x="981.75" y="715" width="150" height="40" as="geometry" />
        </mxCell>
        <mxCell id="J9KPsOGBrFH3h_5mreXa-49" value="" style="shape=curlyBracket;whiteSpace=wrap;html=1;rounded=1;flipH=1;labelPosition=right;verticalLabelPosition=middle;align=left;verticalAlign=middle;size=0.5;" vertex="1" parent="1">
          <mxGeometry x="968" y="590" width="20" height="290" as="geometry" />
        </mxCell>
        <mxCell id="J9KPsOGBrFH3h_5mreXa-50" style="edgeStyle=orthogonalEdgeStyle;rounded=0;orthogonalLoop=1;jettySize=auto;html=1;exitX=1;exitY=0.5;exitDx=0;exitDy=0;dashed=1;" edge="1" parent="1" source="J9KPsOGBrFH3h_5mreXa-51" target="J9KPsOGBrFH3h_5mreXa-57">
          <mxGeometry relative="1" as="geometry" />
        </mxCell>
        <mxCell id="J9KPsOGBrFH3h_5mreXa-51" value="&lt;font style=&quot;font-size: 24px;&quot;&gt;&lt;font style=&quot;&quot;&gt;CIRCUIT&amp;nbsp;&lt;/font&gt;&lt;span style=&quot;background-color: transparent; color: light-dark(rgb(0, 0, 0), rgb(255, 255, 255));&quot;&gt;FOR SUMMATION&lt;/span&gt;&lt;/font&gt;" style="rounded=0;whiteSpace=wrap;html=1;" vertex="1" parent="1">
          <mxGeometry x="1679.25" y="100" width="362.5" height="920" as="geometry" />
        </mxCell>
        <mxCell id="J9KPsOGBrFH3h_5mreXa-52" value="" style="endArrow=classic;html=1;rounded=0;strokeWidth=6;exitX=1.018;exitY=0.484;exitDx=0;exitDy=0;exitPerimeter=0;entryX=0.001;entryY=0.06;entryDx=0;entryDy=0;entryPerimeter=0;dashed=1;" edge="1" parent="1" source="J9KPsOGBrFH3h_5mreXa-26" target="J9KPsOGBrFH3h_5mreXa-51">
          <mxGeometry width="50" height="50" relative="1" as="geometry">
            <mxPoint x="1801.75" y="410" as="sourcePoint" />
            <mxPoint x="1851.75" y="360" as="targetPoint" />
          </mxGeometry>
        </mxCell>
        <mxCell id="J9KPsOGBrFH3h_5mreXa-53" value="" style="endArrow=classic;html=1;rounded=0;strokeWidth=6;exitX=1.007;exitY=0.5;exitDx=0;exitDy=0;exitPerimeter=0;dashed=1;" edge="1" parent="1" source="J9KPsOGBrFH3h_5mreXa-31">
          <mxGeometry width="50" height="50" relative="1" as="geometry">
            <mxPoint x="1491.75" y="283.1600000000001" as="sourcePoint" />
            <mxPoint x="1671.75" y="280" as="targetPoint" />
          </mxGeometry>
        </mxCell>
        <mxCell id="J9KPsOGBrFH3h_5mreXa-54" value="" style="endArrow=classic;html=1;rounded=0;strokeWidth=6;exitX=1.007;exitY=0.493;exitDx=0;exitDy=0;exitPerimeter=0;dashed=1;" edge="1" parent="1" source="J9KPsOGBrFH3h_5mreXa-36">
          <mxGeometry width="50" height="50" relative="1" as="geometry">
            <mxPoint x="1569.87" y="441.75" as="sourcePoint" />
            <mxPoint x="1671.75" y="430" as="targetPoint" />
          </mxGeometry>
        </mxCell>
        <mxCell id="J9KPsOGBrFH3h_5mreXa-55" value="" style="endArrow=classic;html=1;rounded=0;strokeWidth=6;exitX=1.019;exitY=0.456;exitDx=0;exitDy=0;exitPerimeter=0;entryX=0.009;entryY=0.692;entryDx=0;entryDy=0;entryPerimeter=0;dashed=1;" edge="1" parent="1" source="J9KPsOGBrFH3h_5mreXa-48" target="J9KPsOGBrFH3h_5mreXa-51">
          <mxGeometry width="50" height="50" relative="1" as="geometry">
            <mxPoint x="1531.75" y="560" as="sourcePoint" />
            <mxPoint x="1721.75" y="563" as="targetPoint" />
          </mxGeometry>
        </mxCell>
        <mxCell id="J9KPsOGBrFH3h_5mreXa-56" style="edgeStyle=orthogonalEdgeStyle;rounded=0;orthogonalLoop=1;jettySize=auto;html=1;exitX=1;exitY=0.5;exitDx=0;exitDy=0;" edge="1" parent="1" source="J9KPsOGBrFH3h_5mreXa-57">
          <mxGeometry relative="1" as="geometry">
            <mxPoint x="2441.75" y="560" as="targetPoint" />
          </mxGeometry>
        </mxCell>
        <mxCell id="J9KPsOGBrFH3h_5mreXa-57" value="&lt;font style=&quot;font-size: 24px;&quot;&gt;DE-QUANTIZER&lt;/font&gt;" style="rounded=0;whiteSpace=wrap;html=1;" vertex="1" parent="1">
          <mxGeometry x="2089.87" y="487.5" width="213.13" height="145" as="geometry" />
        </mxCell>
        <mxCell id="J9KPsOGBrFH3h_5mreXa-58" value="&lt;font style=&quot;font-size: 24px;&quot;&gt;Calib&lt;/font&gt;&lt;span style=&quot;font-size: 24px; background-color: transparent; color: light-dark(rgb(0, 0, 0), rgb(255, 255, 255));&quot;&gt;rated Output&lt;/span&gt;" style="text;html=1;align=center;verticalAlign=middle;resizable=0;points=[];autosize=1;strokeColor=none;fillColor=none;" vertex="1" parent="1">
          <mxGeometry x="2321.75" y="490" width="210" height="40" as="geometry" />
        </mxCell>
      </root>
    </mxGraphModel>
  </diagram>
</mxfile>
